<?xml version="1.0" standalone="no"?>
<svg id="165649513901300-transport-car-sedan-green1" width="332" height="550" viewBox="0 0 332 550" fill="none" xmlns="http://www.w3.org/2000/svg" style="max-width: 100%; max-height: 100%;">
<g clip-path="url(#clip0_10_38)">
<path d="M165.595 -153.321L138.809 -153.5L127.892 -152.555L121.66 -151.7L115.413 -150.683L108.089 -148.915L102.786 -147.652L94.9574 -145.884L87.6338 -143.359L80.0577 -140.581L73.7442 -137.803L65.4105 -133.763L59.3496 -130.48L53.194 -126.123L46.4701 -120.883L40.9143 -115.075L37.1262 -109.771L32.5805 -102.7L30.5602 -98.1547L28.5399 -92.0938L28.5413 -84.6606V427.503L38.452 517.125L39.6516 521.7L41.9342 525.161L45.5949 529.804L48.9877 532.482L52.7377 534.982L56.6663 537.304L60.5949 538.911L65.7735 541.054L70.7735 542.839L75.7288 544.491L80.952 545.875L85.5949 547.17L91.4877 548.375L97.2913 549.045L102.559 549.447H226.34L237.531 548.024L249.006 546.196L259.234 543.545L267.694 541.019L275.522 537.736L280.113 534.988L283.856 532.181L287.707 527.698L290.169 524.289L292.379 520.248L294.778 502.507L300.902 455.22L302.607 439.057V-86.2677L301.845 -90.9999L300.148 -96.4463L298.095 -100.821L295.506 -105.375L291.577 -111.714L287.872 -116.223L284.166 -119.705L281.488 -122.295L278.318 -124.839L275.372 -126.937L271.309 -129.571L267.094 -132.437L262.864 -134.71L258.287 -136.888L252.447 -139.382L246.48 -141.844L240.735 -144.054L235.164 -146.06L229.876 -147.715L224.257 -149.294L216.933 -150.872L207.653 -152.514L192.113 -153.321H165.595Z" fill="#00BB00" stroke="black" stroke-dasharray="0,0,0,1818.221435546875"><animate attributeType="XML" attributeName="stroke-dasharray" repeatCount="1" dur="2.7777777777777777s" values="0,0,0,1818.221435546875; 
          0,909.1107177734375,909.1107177734375,0; 
          1818.221435546875,0,0,0" keyTimes="0; 0.5; 1" fill="freeze"></animate></path>
<path d="M93.8287 78.457L81.2972 79.8045L67.4221 81.3089L57.827 82.7948L52.8716 84.2568L51.2645 85.0939L50.0591 85.8751L49.0658 86.6229L48.0502 87.4265L47.1797 88.3975L46.1306 89.9823L45.5056 91.768L45.4163 94.0894L45.5056 101.768L47.0234 106.589L69.6573 159.536L71.0859 162.527L72.6484 164.893L75.9966 167.661L78.0948 168.554L84.6127 168.643L96.3091 166.679L110.684 164.893L131.22 163.375L150.573 162.639L180.568 162.591L213.019 164.359L229.497 165.621L247.648 168.018L250.863 168.643L255.684 167.304L257.648 165.518L260.684 162.393L263.497 156.5L266.666 149.357L284.613 105.697L285.773 102.661L285.684 93.3751L285.506 91.3216L284.166 88.4644L282.916 87.393L281.488 85.6073L278.72 84.268L273.631 82.4823L262.927 80.6108L249.448 79.0324L231.391 77.675L200.329 76.5386L155.327 76.6787L111.436 77.3262L93.8287 78.457Z" fill="#585D59" stroke="black" stroke-width="5.66929" stroke-dasharray="0,0,0,595.0482177734375"><animate attributeType="XML" attributeName="stroke-dasharray" repeatCount="1" dur="2.7777777777777777s" values="0,0,0,595.0482177734375; 
          0,297.52410888671875,297.52410888671875,0; 
          595.0482177734375,0,0,0" keyTimes="0; 0.5; 1" fill="freeze"></animate></path>
<path d="M89.7721 372.6L87.202 375.161L85.0591 378.375L82.4252 383.509L79.0324 391.455L76.4877 398.911L74.1663 405.697L72.5591 410.518L71.3091 414.982L69.8806 419.982L68.0949 429.089L66.8449 438.554L66.3091 466.589L66.577 468.732L68.0949 470.964L69.5234 472.214L71.9341 474.446L73.452 475.072L76.5222 476.243L81.8255 477.632L86.3712 478.642L90.6643 479.4L98.0511 480.852L104.665 481.833L110.867 482.809L117.307 483.693L124.631 484.514L130.881 485.145L135.595 485.607H145.952H194.702L204.306 485.208L212.514 484.451L219.333 483.693L226.467 482.62L233.096 481.357L239.409 479.905L246.985 478.263L253.804 476.243L259.612 474.349L262.264 471.95L263.779 470.561L265.168 468.414L264.916 438.615L263.779 426.746L262.011 418.538L260.875 413.614L258.476 405.28L256.077 398.588L254.246 393.095L252.541 388.865L250.521 384.319L248.627 380.721L245.47 374.975L243.197 372.324L240.997 371.5L237.425 371.411L234.211 371.634L224.256 372.393L215.238 373.196L208.006 373.732L200.416 374.446L191.22 375.339L175.059 376.143L153.095 376.411L132.381 375.25L116.488 373.732L109.613 372.75L99.9698 371.768L92.6484 371.879L89.7721 372.6Z" fill="#585D59" stroke="black" stroke-width="5.66929" stroke-dasharray="0,0,0,561.48583984375"><animate attributeType="XML" attributeName="stroke-dasharray" repeatCount="1" dur="2.7777777777777777s" values="0,0,0,561.48583984375; 
          0,280.742919921875,280.742919921875,0; 
          561.48583984375,0,0,0" keyTimes="0; 0.5; 1" fill="freeze"></animate></path>
<path d="M39.9934 134.03L58.2734 176.947L59.702 180.786L59.5234 254.804L39.6127 245.607L39.9934 134.03Z" fill="#585D59" stroke="black" stroke-width="5.66929" stroke-dasharray="0,0,0,258.27215576171875"><animate attributeType="XML" attributeName="stroke-dasharray" repeatCount="1" dur="2.7777777777777777s" values="0,0,0,258.27215576171875; 
          0,129.13607788085938,129.13607788085938,0; 
          258.27215576171875,0,0,0" keyTimes="0; 0.5; 1" fill="freeze"></animate></path>
<path d="M39.6832 258.619L59.5681 267.572V348.333L39.5878 359.868L39.6832 258.619Z" fill="#585D59" stroke="black" stroke-width="5.66929" stroke-dasharray="0,0,0,226.8885040283203"><animate attributeType="XML" attributeName="stroke-dasharray" repeatCount="1" dur="2.7777777777777777s" values="0,0,0,226.8885040283203; 
          0,113.44425201416016,113.44425201416016,0; 
          226.8885040283203,0,0,0" keyTimes="0; 0.5; 1" fill="freeze"></animate></path>
<path d="M291.296 134.03L273.016 176.947L271.587 180.786L271.766 254.804L291.677 245.607L291.296 134.03Z" fill="#585D59" stroke="black" stroke-width="5.66929" stroke-dasharray="0,0,0,258.2725524902344"><animate attributeType="XML" attributeName="stroke-dasharray" repeatCount="1" dur="2.7777777777777777s" values="0,0,0,258.2725524902344; 
          0,129.1362762451172,129.1362762451172,0; 
          258.2725524902344,0,0,0" keyTimes="0; 0.5; 1" fill="freeze"></animate></path>
<path d="M291.606 258.619L271.721 267.572V348.333L291.702 359.868L291.606 258.619Z" fill="#585D59" stroke="black" stroke-width="5.66929" stroke-dasharray="0,0,0,226.88917541503906"><animate attributeType="XML" attributeName="stroke-dasharray" repeatCount="1" dur="2.7777777777777777s" values="0,0,0,226.88917541503906; 
          0,113.44458770751953,113.44458770751953,0; 
          226.88917541503906,0,0,0" keyTimes="0; 0.5; 1" fill="freeze"></animate></path>
<path d="M45.8627 -76.1785L45.7734 65.8751L43.8091 65.518L42.827 47.8394L42.4699 41.8573L42.5592 -65.8213L43.452 -70.9106L45.8627 -76.1785Z" fill="white" stroke="#080000" stroke-width="1.00157" stroke-dasharray="0,0,0,286.3876953125"><animate attributeType="XML" attributeName="stroke-dasharray" repeatCount="1" dur="2.7777777777777777s" values="0,0,0,286.3876953125; 
          0,143.19384765625,143.19384765625,0; 
          286.3876953125,0,0,0" keyTimes="0; 0.5; 1" fill="freeze"></animate></path>
<path d="M301.861 100.072L305.433 100.964L310.344 102.393L315.611 103.643L321.951 106.857L325.969 109L328.469 112.661L329.986 115.072L330.701 120.339L330.969 125.429L329.629 128.464L327.04 130.429L324.719 130.607L320.344 129.447L314.986 127.036L310.56 124.892L307.818 122.663L305.851 119.867L302.004 105.929L296.629 104.214L296.683 100.072L301.861 100.072Z" fill="black" stroke="#010000" stroke-dasharray="0,0,0,104.1546630859375"><animate attributeType="XML" attributeName="stroke-dasharray" repeatCount="1" dur="2.7777777777777777s" values="0,0,0,104.1546630859375; 
          0,52.07733154296875,52.07733154296875,0; 
          104.1546630859375,0,0,0" keyTimes="0; 0.5; 1" fill="freeze"></animate></path>
<path d="M284.22 -76.2097L284.309 65.8439L286.274 65.4867L287.256 47.8082L287.613 41.826L287.524 -65.8526L286.631 -70.9418L284.22 -76.2097Z" fill="white" stroke="#080000" stroke-width="1.00157" stroke-dasharray="0,0,0,286.3884582519531"><animate attributeType="XML" attributeName="stroke-dasharray" repeatCount="1" dur="2.7777777777777777s" values="0,0,0,286.3884582519531; 
          0,143.19422912597656,143.19422912597656,0; 
          286.3884582519531,0,0,0" keyTimes="0; 0.5; 1" fill="freeze"></animate></path>
<path d="M275.522 537.736L271.682 532.375Z" fill="#C20000" stroke-dasharray="0,0,0,13.188804626464844"><animate attributeType="XML" attributeName="stroke-dasharray" repeatCount="1" dur="2.7777777777777777s" values="0,0,0,13.188804626464844; 
          0,6.594402313232422,6.594402313232422,0; 
          13.188804626464844,0,0,0" keyTimes="0; 0.5; 1" fill="freeze"></animate></path>
<path d="M118.101 535.605L72.3573 535.605L72.3573 541.08L118.101 541.08L118.101 535.605Z" fill="#C20000" stroke-dasharray="0,0,0,102.43746948242188"><animate attributeType="XML" attributeName="stroke-dasharray" repeatCount="1" dur="2.7777777777777777s" values="0,0,0,102.43746948242188; 
          0,51.21873474121094,51.21873474121094,0; 
          102.43746948242188,0,0,0" keyTimes="0; 0.5; 1" fill="freeze"></animate></path>
<path d="M258.101 535.605L212.357 535.605L212.357 541.08L258.101 541.08L258.101 535.605Z" fill="#C20000" stroke-dasharray="0,0,0,102.4381103515625"><animate attributeType="XML" attributeName="stroke-dasharray" repeatCount="1" dur="2.7777777777777777s" values="0,0,0,102.4381103515625; 
          0,51.21905517578125,51.21905517578125,0; 
          102.4381103515625,0,0,0" keyTimes="0; 0.5; 1" fill="freeze"></animate></path>
<path d="M29.6127 100.072L26.0413 100.964L21.1306 102.393L15.8627 103.643L9.52341 106.857L5.50555 109L3.00555 112.661L1.48769 115.072L0.773409 120.339L0.505554 125.429L1.84484 128.464L4.43413 130.429L6.75555 130.607L11.1306 129.447L16.4877 127.036L20.9141 124.892L23.6557 122.663L25.6236 119.867L29.4699 105.929L34.8449 104.214L34.7913 100.072L29.6127 100.072Z" fill="black" stroke="#010000" stroke-dasharray="0,0,0,104.15485382080078"><animate attributeType="XML" attributeName="stroke-dasharray" repeatCount="1" dur="2.7777777777777777s" values="0,0,0,104.15485382080078; 
          0,52.07742691040039,52.07742691040039,0; 
          104.15485382080078,0,0,0" keyTimes="0; 0.5; 1" fill="freeze"></animate></path>
<path d="M63.8895 466.607L72.3573 535.605H118.101H212.357H258.101L267.51 468.856" stroke="black" stroke-dasharray="0,0,0,322.6682434082031"><animate attributeType="XML" attributeName="stroke-dasharray" repeatCount="1" dur="2.7777777777777777s" values="0,0,0,322.6682434082031; 
          0,161.33412170410156,161.33412170410156,0; 
          322.6682434082031,0,0,0" keyTimes="0; 0.5; 1" fill="freeze"></animate></path>
<path d="M118.101 541.08H212.357" stroke="black" stroke-dasharray="0,0,0,94.25599670410156"><animate attributeType="XML" attributeName="stroke-dasharray" repeatCount="1" dur="2.7777777777777777s" values="0,0,0,94.25599670410156; 
          0,47.12799835205078,47.12799835205078,0; 
          94.25599670410156,0,0,0" keyTimes="0; 0.5; 1" fill="freeze"></animate></path>
<path d="M118.216 538.38V536.17H165.239H212.262V538.38V540.59H165.239H118.216V538.38Z" fill="#F9F9F9" stroke="#050000" stroke-width="0.668132" stroke-linecap="round" stroke-linejoin="round" stroke-dasharray="0,0,0,196.93206787109375"><animate attributeType="XML" attributeName="stroke-dasharray" repeatCount="1" dur="2.7777777777777777s" values="0,0,0,196.93206787109375; 
          0,98.46603393554688,98.46603393554688,0; 
          196.93206787109375,0,0,0" keyTimes="0; 0.5; 1" fill="freeze"></animate></path>
</g>
<defs>
<clipPath id="clip0_10_38">
<rect width="331.474" height="703.947" fill="white" transform="translate(0 -154)" stroke-dasharray="0,0,0,2070.842041015625"><animate attributeType="XML" attributeName="stroke-dasharray" repeatCount="1" dur="2.7777777777777777s" values="0,0,0,2070.842041015625; 
          0,1035.4210205078125,1035.4210205078125,0; 
          2070.842041015625,0,0,0" keyTimes="0; 0.5; 1" fill="freeze"></animate></rect>
</clipPath>
</defs>
</svg>