<svg version="1.1" xmlns="http://www.w3.org/2000/svg" xmlns:xlink="http://www.w3.org/1999/xlink" width="512.000000pt" height="512.000000pt" viewBox="0,0,256,256"><g fill="#0dce0d" fill-rule="nonzero" stroke="none" stroke-width="1" stroke-linecap="butt" stroke-linejoin="miter" stroke-miterlimit="10" stroke-dasharray="" stroke-dashoffset="0" font-family="none" font-weight="none" font-size="none" text-anchor="none" style="mix-blend-mode: normal"><g transform="translate(-0.00696,0.077) scale(0.5,0.5)"><g transform="translate(0,512) scale(0.1,-0.1)"><path d="M2215,4639c-181,-11 -361,-33 -432,-54c-105,-31 -118,-59 -148,-323c-21,-186 -22,-192 -41,-192c-8,0 -26,-11 -39,-25c-25,-24 -25,-26 -25,-210c0,-185 0,-186 25,-211c23,-23 25,-32 25,-117c0,-51 7,-150 15,-222c8,-71 15,-133 15,-137c0,-4 -20,-5 -44,-2c-61,9 -180,-28 -216,-66c-47,-51 -66,-163 -32,-192c41,-36 183,-58 262,-39c24,5 46,8 49,5c2,-2 -1,-172 -8,-377c-7,-204 -13,-484 -15,-622c-3,-236 -4,-252 -24,-285c-20,-32 -22,-49 -22,-203c0,-173 5,-198 42,-228c17,-13 22,-38 34,-165c21,-224 43,-360 63,-378c36,-32 252,-84 446,-107c147,-18 683,-18 830,0c194,23 410,75 446,107c20,18 42,154 63,378c12,127 17,152 34,165c37,30 42,55 42,229c0,159 -1,171 -23,203c-22,33 -23,40 -25,349c-1,173 -7,414 -12,535c-5,121 -10,262 -10,312v93l33,-8c88,-19 238,0 280,36c33,29 14,141 -33,192c-36,38 -155,75 -216,66c-24,-3 -44,-2 -44,2c0,4 7,66 15,137c8,72 15,171 15,222c0,85 2,94 25,117c25,25 25,26 25,211c0,184 0,186 -25,210c-13,14 -31,25 -39,25c-19,0 -20,6 -41,192c-30,264 -43,292 -148,323c-174,52 -706,77 -1122,54zM2758,4510c7,-95 10,-96 243,-136c163,-28 166,-28 212,-10c53,20 66,46 48,97c-6,18 -9,35 -6,38c3,3 25,-1 48,-9c35,-12 44,-22 54,-53c26,-79 83,-697 83,-902c0,-55 -10,-190 -22,-300c-25,-229 -28,-468 -11,-1095c14,-565 -3,-1055 -49,-1388l-11,-82l-66,-21c-338,-104 -1104,-104 -1442,0l-66,21l-11,82c-47,337 -64,830 -49,1393c17,637 15,849 -12,1095c-19,178 -22,244 -17,385c10,285 54,737 80,815c9,28 19,38 53,50c23,8 45,12 48,9c3,-3 0,-20 -6,-38c-18,-51 -5,-77 48,-97c45,-18 50,-17 182,5c261,43 271,48 271,124c0,24 3,47 7,51c4,3 93,5 197,4l191,-3zM2260,4521c0,-13 -9,-21 -27,-25c-80,-16 -265,-47 -268,-44c-2,2 3,17 10,35c12,28 19,32 67,37c187,21 218,20 218,-3zM3089,4523c36,-5 45,-10 56,-37c7,-17 12,-32 10,-34c-3,-3 -188,28 -267,44c-20,4 -28,12 -28,26c0,20 4,20 93,14c50,-4 112,-9 136,-13zM1586,3034c27,-13 34,-22 34,-44c0,-24 -5,-29 -44,-39c-85,-21 -173,-8 -168,25c5,27 23,43 68,59c51,18 69,18 110,-1zM3672,3024c30,-15 52,-53 39,-67c-14,-15 -109,-19 -160,-7c-46,11 -51,15 -51,40c0,55 94,74 172,34z"></path><path d="M2386,3500c-171,-20 -363,-69 -441,-113c-39,-23 -40,-24 -39,-78c1,-55 28,-172 65,-282c29,-85 102,-239 121,-255c13,-11 34,-9 119,10c92,20 132,22 349,22c217,0 257,-2 349,-22c85,-19 106,-21 119,-10c19,16 92,170 121,255c37,110 64,227 65,283l1,55l-65,32c-167,81 -527,130 -764,103zM2711,3400c123,-13 295,-50 361,-78l47,-21l-15,-63c-20,-88 -57,-202 -95,-293c-32,-76 -33,-77 -63,-70c-17,3 -76,13 -131,21c-131,20 -461,14 -584,-10c-46,-10 -85,-15 -87,-13c-3,2 -23,49 -45,103c-44,107 -102,315 -91,326c17,16 120,49 214,68c188,39 321,47 489,30z"></path><path d="M1812,3019c-22,-8 -22,-11 -22,-226c0,-120 -7,-445 -15,-723c-14,-493 -14,-505 4,-524c33,-33 65,-15 112,64c52,88 92,192 114,295c14,64 17,127 16,320c-1,132 -6,303 -10,380l-8,140l-65,136c-67,140 -81,155 -126,138zM1914,2540c12,-293 9,-538 -8,-615c-31,-147 -37,-131 -31,95c13,548 19,711 25,699c4,-8 10,-88 14,-179z"></path><path d="M3264,3020c-14,-6 -41,-53 -87,-151l-66,-144l-9,-310c-12,-419 0,-537 73,-700c68,-155 123,-211 166,-169c18,18 18,33 4,524c-8,278 -15,600 -15,715c0,116 -4,215 -8,221c-11,16 -35,22 -58,14zM3243,2085l6,-280l-20,60c-11,33 -23,102 -27,154c-9,103 4,650 15,691c8,28 17,-197 26,-625z"></path><path d="M2038,1470c-35,-21 -108,-447 -108,-629c0,-75 10,-83 130,-105c262,-48 738,-48 1000,0c120,22 130,30 130,105c0,186 -74,610 -109,629c-12,6 -38,6 -72,-1c-85,-16 -671,-23 -802,-10c-62,7 -121,14 -132,16c-11,3 -28,0 -37,-5zM2560,1355c173,0 347,3 386,7l72,8l21,-110c23,-121 57,-407 49,-415c-3,-3 -52,-13 -109,-22c-150,-24 -688,-24 -838,0c-57,9 -106,19 -109,22c-8,8 26,294 49,415l21,110l72,-8c39,-4 213,-7 386,-7z"></path></g></g></g></svg>