<?xml version="1.0" encoding="iso-8859-1"?>
<!-- Uploaded to: SVG Repo, www.svgrepo.com, Generator: SVG Repo Mixer Tools -->
<!DOCTYPE svg PUBLIC "-//W3C//DTD SVG 1.1//EN" "http://www.w3.org/Graphics/SVG/1.1/DTD/svg11.dtd">
<svg fill="#000000" version="1.1" id="Capa_1" xmlns="http://www.w3.org/2000/svg" xmlns:xlink="http://www.w3.org/1999/xlink" 
	 width="800px" height="800px" viewBox="0 0 77.945 77.945"
	 xml:space="preserve">
<g>
	<g>
		<path d="M38.973,0.001C17.483,0.001,0,17.484,0,38.973c0,21.489,17.483,38.971,38.973,38.971s38.972-17.482,38.972-38.971
			C77.945,17.484,60.463,0.001,38.973,0.001z M52.574,34.167c0-0.265,0.215-0.478,0.479-0.478h4.051
			c0.265,0,0.479,0.213,0.478,0.478v9.492c0,0.264-0.213,0.478-0.478,0.478H52.99c-0.26,0-0.471-0.208-0.479-0.466l-0.052-2.021
			H38.624c-0.265,0-0.479-0.213-0.479-0.479v-7.003c0-0.189,0.113-0.362,0.286-0.438c0.176-0.076,0.377-0.042,0.517,0.087
			c0.005,0.005,0.649,0.576,1.599,0.576c0.572,0,1.152-0.206,1.723-0.613c0.146-0.105,0.338-0.12,0.496-0.037
			c0.16,0.082,0.261,0.246,0.261,0.425V36.6h9.548V34.167z M35.065,28.079l8.291-2.595c0.242-0.075,0.496,0.05,0.588,0.283
			l0.506,1.297c0.089,0.227-0.008,0.482-0.221,0.596c-0.021,0.013-0.693,0.424-0.451,1.738c0.365,1.975-0.779,3.854-2.047,4.216
			c-0.418,0.119-0.829,0.18-1.219,0.18c-1.604,0-2.905-1.017-3.659-2.863c-0.215-0.523-0.526-0.59-0.89-0.668
			c-0.268-0.057-0.571-0.122-0.767-0.397c-0.306-0.431-0.445-1.163-0.46-1.244C34.694,28.383,34.834,28.15,35.065,28.079z
			 M28.19,28.93c-0.805,0.232-1.534,0.35-2.17,0.35c-1.805,0-2.323-0.932-2.377-1.038c-0.012-0.023-0.021-0.047-0.029-0.073
			l-1.582-5.126c-0.039-0.124-0.025-0.259,0.038-0.372c0.063-0.114,0.169-0.197,0.295-0.23c0.031-0.008,3.109-0.829,5.711-1.82
			c0.646-0.245,1.221-0.37,1.711-0.37c1.176,0,1.679,0.712,1.813,1.181l2.302,3.107c5.614-0.896,13.857-4.934,13.939-4.976
			c0.131-0.064,0.285-0.065,0.416-0.002c0.133,0.062,0.229,0.182,0.262,0.325l0.57,2.468c0.057,0.247-0.09,0.495-0.332,0.566
			C48.586,22.968,31.445,27.992,28.19,28.93z M15.576,17.886c0.049-0.153,0.171-0.272,0.326-0.316l31.135-8.86
			c0.227-0.064,0.466,0.046,0.564,0.259c0.102,0.22,2.473,5.42,1.125,8.553c-0.428,0.997-1.178,1.682-2.229,2.037
			c-4.637,1.566-12.153,3.841-12.229,3.865c-0.045,0.014-0.092,0.021-0.139,0.021c-0.155,0-0.307-0.077-0.396-0.211l-1.784-2.657
			c-0.013-0.013-0.86-1.049-2.339-1.049c-0.335,0-0.685,0.055-1.035,0.163c-2.446,0.752-9.183,2.642-9.251,2.661
			c-0.182,0.053-0.378-0.01-0.499-0.158l-3.164-3.859C15.562,18.208,15.529,18.04,15.576,17.886z M18.529,23.045
			c0.071-0.125,0.194-0.21,0.337-0.234l1.898-0.316c0.234-0.042,0.468,0.104,0.537,0.336l1.645,5.568
			c0.065,0.222-0.037,0.459-0.245,0.563l-1.265,0.632c-0.066,0.034-0.141,0.05-0.214,0.05c-0.059,0-0.116-0.011-0.172-0.032
			c-0.125-0.048-0.225-0.147-0.273-0.272l-2.278-5.885C18.447,23.321,18.458,23.17,18.529,23.045z M25.487,63.576
			c1.026,0,2.072-0.214,2.75-0.542l0.348,1.336c-0.619,0.31-1.858,0.62-3.446,0.62c-3.681,0-6.449-2.324-6.449-6.604
			c0-4.086,2.769-6.855,6.816-6.855c1.627,0,2.653,0.349,3.099,0.58l-0.407,1.375c-0.639-0.311-1.549-0.543-2.634-0.543
			c-3.061,0-5.094,1.957-5.094,5.385C20.47,61.522,22.31,63.576,25.487,63.576z M36.312,63.576c1.026,0,2.072-0.214,2.75-0.542
			l0.349,1.336c-0.619,0.31-1.859,0.62-3.447,0.62c-3.68,0-6.448-2.324-6.448-6.604c0-4.086,2.769-6.855,6.816-6.855
			c1.627,0,2.653,0.349,3.099,0.58l-0.408,1.375c-0.639-0.311-1.549-0.543-2.634-0.543c-3.06,0-5.093,1.957-5.093,5.385
			C31.296,61.522,33.136,63.576,36.312,63.576z M50.237,53.176h-3.989v11.62h-1.704v-11.62h-3.97v-1.433h9.663V53.176z
			 M57.189,64.796H55.33l-4.26-13.053h1.82l2.033,6.429c0.562,1.763,1.045,3.351,1.395,4.881h0.037
			c0.369-1.51,0.912-3.157,1.492-4.86l2.207-6.449h1.803L57.189,64.796z"/>
		<path d="M33.756,25.528c-0.176,0.025-0.346-0.048-0.451-0.189l-2.531-3.417c-0.046-0.061-0.076-0.134-0.088-0.209
			c-0.017-0.076-0.146-0.506-0.899-0.506c-0.375,0-0.835,0.104-1.369,0.308c-2.034,0.774-4.347,1.445-5.327,1.719l1.419,4.599
			c0.067,0.087,0.43,0.493,1.511,0.494c0.543,0,1.186-0.105,1.903-0.313c2.961-0.854,17.434-5.093,20.134-5.884l-0.334-1.446
			C45.727,21.63,38.756,24.814,33.756,25.528z"/>
		<polygon points="21.916,28.286 20.504,23.506 19.602,23.657 21.479,28.504 		"/>
		<path d="M42.071,37.078V35c-0.5,0.232-1.011,0.348-1.522,0.348c-0.579,0-1.07-0.149-1.446-0.321v5.666h13.825
			c0.26,0,0.471,0.207,0.479,0.467l0.051,2.021h3.169h0.001v-8.536h-3.095v2.433c0,0.264-0.213,0.478-0.478,0.478H42.549
			C42.285,37.556,42.071,37.342,42.071,37.078z"/>
		<path d="M36.163,29.328c0.438,0.093,1.17,0.25,1.575,1.241c0.422,1.036,1.247,2.269,2.773,2.269c0.301,0,0.623-0.048,0.955-0.143
			c0.744-0.212,1.647-1.618,1.369-3.124c-0.251-1.358,0.232-2.12,0.596-2.483l-0.219-0.558l-7.435,2.327
			c0.049,0.157,0.108,0.313,0.175,0.42C36.001,29.293,36.093,29.313,36.163,29.328z M40.523,28.689c0.962,0,1.742,0.783,1.742,1.744
			s-0.781,1.744-1.742,1.744c-0.962,0-1.744-0.783-1.744-1.744S39.561,28.689,40.523,28.689z"/>
		<path d="M28.295,18.775c0.442-0.136,0.886-0.205,1.317-0.205c1.952,0,3.064,1.385,3.11,1.443l1.607,2.393
			c1.519-0.462,7.802-2.382,11.86-3.753c0.795-0.268,1.337-0.761,1.658-1.507c0.99-2.306-0.453-6.187-0.955-7.4L28.076,15.1
			l10.751-2.597c0.254-0.062,0.516,0.096,0.577,0.353c0.062,0.256-0.097,0.515-0.353,0.577L24.116,17.04
			c-0.037,0.009-0.075,0.013-0.112,0.013c-0.216,0-0.411-0.147-0.465-0.366c-0.025-0.108-0.007-0.213,0.037-0.306l-6.714,1.911
			l2.504,3.055C20.708,20.969,26.157,19.434,28.295,18.775z"/>
		<circle cx="40.523" cy="30.433" r="0.788"/>
	</g>
</g>
</svg>