<?xml version="1.0" encoding="iso-8859-1"?>
<!-- Uploaded to: SVG Repo, www.svgrepo.com, Generator: SVG Repo Mixer Tools -->
<svg version="1.1" id="Layer_1" xmlns="http://www.w3.org/2000/svg" xmlns:xlink="http://www.w3.org/1999/xlink" 
	 viewBox="0 0 511.984 511.984" xml:space="preserve">
<rect y="0.003" style="fill:#FEC986;" width="511.973" height="511.973"/>
<rect y="183.992" style="fill:#FEB860;" width="511.973" height="143.993"/>
<g>
	<polygon style="fill:#1D1D1B;" points="463.979,344.151 415.981,344.151 415.981,359.824 432.143,359.824 432.143,511.98 
		447.816,511.98 447.816,359.824 463.979,359.824 	"/>
	<polygon style="fill:#1D1D1B;" points="287.986,359.824 304.149,359.824 304.149,511.98 319.822,511.98 319.822,359.824 
		335.984,359.824 335.984,344.151 287.986,344.151 	"/>
	<polygon style="fill:#1D1D1B;" points="167.992,359.824 184.155,359.824 184.155,511.98 199.828,511.98 199.828,359.824 
		215.99,359.824 215.99,344.151 167.992,344.151 	"/>
	<polygon style="fill:#1D1D1B;" points="47.998,359.824 64.16,359.824 64.16,511.98 79.833,511.98 79.833,359.824 95.996,359.824 
		95.996,344.151 47.998,344.151 	"/>
	<polygon style="fill:#1D1D1B;" points="79.833,0.003 64.16,0.003 64.16,152.16 47.998,152.16 47.998,167.833 95.996,167.833 
		95.996,152.16 79.833,152.16 	"/>
	<polygon style="fill:#1D1D1B;" points="207.827,0.003 192.154,0.003 192.154,152.16 175.992,152.16 175.992,167.833 
		223.99,167.833 223.99,152.16 207.827,152.16 	"/>
	<polygon style="fill:#1D1D1B;" points="327.822,0.003 312.149,0.003 312.149,152.16 295.986,152.16 295.986,167.833 
		343.984,167.833 343.984,152.16 327.822,152.16 	"/>
	<polygon style="fill:#1D1D1B;" points="463.978,152.16 447.816,152.16 447.816,0.003 432.143,0.003 432.143,152.16 415.981,152.16 
		415.981,167.833 463.978,167.833 	"/>
</g>
<g>
	<rect y="248.158" style="fill:#FFFFFF;" width="15.999" height="15.673"/>
	<rect x="47.998" y="248.158" style="fill:#FFFFFF;" width="31.999" height="15.673"/>
	<rect x="111.999" y="248.158" style="fill:#FFFFFF;" width="31.999" height="15.673"/>
	<rect x="175.997" y="248.158" style="fill:#FFFFFF;" width="31.999" height="15.673"/>
	<rect x="239.984" y="248.158" style="fill:#FFFFFF;" width="31.999" height="15.673"/>
	<rect x="303.982" y="248.158" style="fill:#FFFFFF;" width="31.999" height="15.673"/>
	<rect x="367.98" y="248.158" style="fill:#FFFFFF;" width="31.999" height="15.673"/>
	<rect x="431.978" y="248.158" style="fill:#FFFFFF;" width="31.999" height="15.673"/>
	
		<rect x="496.125" y="247.964" transform="matrix(-0.0029 -1 1 -0.0029 249.461 760.6649)" style="fill:#FFFFFF;" width="15.673" height="15.999"/>
</g>
</svg>